<svg width="250" height="231" viewBox="0 0 250 231" fill="none" xmlns="http://www.w3.org/2000/svg">
<path d="M168.207 79.2778C150.466 79.2778 132.451 78.5456 115.578 73.7649C99.0228 69.0918 83.8225 60.0256 70.2736 49.5381C61.3821 42.7116 53.3374 37.2632 41.7996 38.0816C30.5393 38.7018 19.772 42.9817 11.0816 50.2918C-3.58941 63.342 -1.36653 87.4826 4.49762 104.452C13.3044 129.971 40.1907 147.737 62.8852 159.301C89.1998 172.675 118.097 180.492 147.1 184.906C172.505 188.847 205.128 191.69 227.145 174.807C247.384 159.301 252.93 123.898 247.977 99.9944C246.767 92.9303 243.063 86.5588 237.561 82.0773C223.356 71.5037 202.185 78.5671 186.223 78.9117C180.295 79.0409 174.262 79.2778 168.207 79.2778Z" fill="#272933"/>
<path d="M133.897 230.82C176.818 230.82 211.613 228.612 211.613 225.889C211.613 223.165 176.818 220.957 133.897 220.957C90.9758 220.957 56.1812 223.165 56.1812 225.889C56.1812 228.612 90.9758 230.82 133.897 230.82Z" fill="#272933"/>
<path d="M24.2354 35.7573L51.7567 33.3885C55.1913 33.0817 58.6254 33.9837 61.4846 35.9436C64.3439 37.9035 66.455 40.8025 67.465 44.1559L93.8219 133.956L88.6141 143.367C87.2833 145.797 86.6273 148.549 86.7163 151.329C86.8053 154.109 87.636 156.812 89.1194 159.148C90.6028 161.485 92.6831 163.367 95.1374 164.593C97.5917 165.819 100.328 166.342 103.052 166.108L208.692 156.977" stroke="#3E73C4" stroke-linecap="round" stroke-linejoin="round"/>
<path d="M71.3813 57.7875L194.169 47.1923C195.383 47.0765 196.608 47.2418 197.751 47.6756C198.894 48.1095 199.926 48.8008 200.769 49.6978C201.612 50.5947 202.244 51.6741 202.619 52.855C202.994 54.0359 203.101 55.2878 202.933 56.5169L194.613 117.59C194.361 119.425 193.511 121.121 192.198 122.406C190.885 123.691 189.186 124.49 187.373 124.675L93.8218 133.956L71.3813 57.7875Z" fill="#2D333E" stroke="#3E73C4" stroke-miterlimit="10"/>
<path d="M114.78 186.695C120.287 186.695 124.751 182.154 124.751 176.552C124.751 170.951 120.287 166.409 114.78 166.409C109.273 166.409 104.809 170.951 104.809 176.552C104.809 182.154 109.273 186.695 114.78 186.695Z" fill="#2D333E" stroke="#3E73C4" stroke-miterlimit="10"/>
<path d="M184.219 180.709C189.726 180.709 194.19 176.167 194.19 170.566C194.19 164.964 189.726 160.423 184.219 160.423C178.712 160.423 174.248 164.964 174.248 170.566C174.248 176.167 178.712 180.709 184.219 180.709Z" fill="#2D333E" stroke="#3E73C4" stroke-miterlimit="10"/>
<path d="M46.0174 30.9781L20.0712 33.2176C17.8228 33.4117 16.1547 35.4232 16.3454 37.7104C16.5362 39.9976 18.5136 41.6944 20.7621 41.5003L46.7083 39.2609C48.9568 39.0668 50.6249 37.0553 50.4341 34.7681C50.2433 32.4809 48.2659 30.7841 46.0174 30.9781Z" fill="#3E73C4"/>
<path d="M123.079 104.97C123.575 101.03 125.384 97.3818 128.203 94.633C131.023 91.8842 134.683 90.2009 138.574 89.8635C142.465 89.5261 146.352 90.5549 149.588 92.7787C152.824 95.0024 155.214 98.2868 156.359 102.085" stroke="#3E73C4" stroke-linecap="round" stroke-linejoin="round"/>
<path d="M156.592 81.7343C157.901 81.7343 158.963 80.6544 158.963 79.3224C158.963 77.9903 157.901 76.9105 156.592 76.9105C155.282 76.9105 154.221 77.9903 154.221 79.3224C154.221 80.6544 155.282 81.7343 156.592 81.7343Z" fill="#3E73C4"/>
<path d="M119.036 84.9645C120.345 84.9645 121.407 83.8847 121.407 82.5526C121.407 81.2205 120.345 80.1407 119.036 80.1407C117.726 80.1407 116.665 81.2205 116.665 82.5526C116.665 83.8847 117.726 84.9645 119.036 84.9645Z" fill="#3E73C4"/>
<path d="M52.2437 173.559V182.841" stroke="#3E73C4" stroke-linecap="round" stroke-linejoin="round"/>
<path d="M47.6919 178.189H56.7951" stroke="#3E73C4" stroke-linecap="round" stroke-linejoin="round"/>
<path d="M197.704 1V10.2815" stroke="#3E73C4" stroke-linecap="round" stroke-linejoin="round"/>
<path d="M193.131 5.65155H202.256" stroke="#3E73C4" stroke-linecap="round" stroke-linejoin="round"/>
<path d="M89.9053 28.6938V37.9538" stroke="#3E73C4" stroke-linecap="round" stroke-linejoin="round"/>
<path d="M85.354 33.3239H94.4784" stroke="#3E73C4" stroke-linecap="round" stroke-linejoin="round"/>
<path d="M220.42 62.7405C221.613 62.7405 222.579 61.7571 222.579 60.544C222.579 59.3308 221.613 58.3474 220.42 58.3474C219.228 58.3474 218.261 59.3308 218.261 60.544C218.261 61.7571 219.228 62.7405 220.42 62.7405Z" fill="white" stroke="#3E73C4" stroke-linecap="round" stroke-linejoin="round"/>
<path d="M139.719 42.9931C140.865 42.9931 141.794 42.0482 141.794 40.8826C141.794 39.7171 140.865 38.7722 139.719 38.7722C138.573 38.7722 137.645 39.7171 137.645 40.8826C137.645 42.0482 138.573 42.9931 139.719 42.9931Z" fill="#3E73C4"/>
<path d="M153.628 196.149C154.774 196.149 155.703 195.204 155.703 194.039C155.703 192.873 154.774 191.928 153.628 191.928C152.482 191.928 151.553 192.873 151.553 194.039C151.553 195.204 152.482 196.149 153.628 196.149Z" fill="#3E73C4"/>
</svg>
