<svg width="246" height="52" viewBox="0 0 246 52" fill="none" xmlns="http://www.w3.org/2000/svg">
<circle cx="10" cy="30" r="9.25" stroke="white" stroke-width="1.5" stroke-dasharray="4 4"/>
<path d="M59.68 40L53.76 19.84H58.52L62.64 36.4L61.76 36.36L66.36 19.84H71.72L76.36 36.36H75.48L79.6 19.84H84.36L78.44 40H73.48L68.56 22.92H69.56L64.64 40H59.68ZM93.5719 40.48C91.9185 40.48 90.5452 40.2 89.4519 39.64C88.3585 39.08 87.5452 38.3333 87.0119 37.4C86.4785 36.4667 86.2119 35.4533 86.2119 34.36C86.2119 33.08 86.5319 31.9733 87.1719 31.04C87.8385 30.1067 88.8119 29.3867 90.0919 28.88C91.3719 28.3467 92.9452 28.08 94.8119 28.08H99.8919C99.8919 27.0133 99.7452 26.1333 99.4519 25.44C99.1585 24.72 98.7052 24.1867 98.0919 23.84C97.4785 23.4933 96.6919 23.32 95.7319 23.32C94.6385 23.32 93.7052 23.5733 92.9319 24.08C92.1585 24.56 91.6785 25.3067 91.4919 26.32H86.7719C86.9319 24.88 87.4119 23.6533 88.2119 22.64C89.0119 21.6 90.0652 20.8 91.3719 20.24C92.7052 19.6533 94.1585 19.36 95.7319 19.36C97.6252 19.36 99.2385 19.6933 100.572 20.36C101.905 21 102.919 21.9333 103.612 23.16C104.332 24.36 104.692 25.8133 104.692 27.52V40H100.612L100.132 36.76C99.8652 37.2933 99.5185 37.7867 99.0919 38.24C98.6919 38.6933 98.2252 39.0933 97.6919 39.44C97.1585 39.76 96.5452 40.0133 95.8519 40.2C95.1852 40.3867 94.4252 40.48 93.5719 40.48ZM94.6519 36.68C95.4252 36.68 96.1052 36.5467 96.6919 36.28C97.3052 35.9867 97.8252 35.5867 98.2519 35.08C98.7052 34.5467 99.0519 33.96 99.2919 33.32C99.5319 32.68 99.6919 32 99.7719 31.28V31.2H95.3319C94.3985 31.2 93.6252 31.32 93.0119 31.56C92.3985 31.7733 91.9585 32.0933 91.6919 32.52C91.4252 32.9467 91.2919 33.44 91.2919 34C91.2919 34.56 91.4252 35.04 91.6919 35.44C91.9585 35.84 92.3452 36.1467 92.8519 36.36C93.3585 36.5733 93.9585 36.68 94.6519 36.68ZM122.821 40L113.901 28.96L121.901 19.84H127.621L117.661 30.92V27.2L128.821 40H122.821ZM109.821 40V11.2H114.621V40H109.821ZM139.886 40.48C137.886 40.48 136.126 40.0533 134.606 39.2C133.086 38.32 131.899 37.0933 131.046 35.52C130.192 33.9467 129.766 32.1333 129.766 30.08C129.766 27.9467 130.179 26.08 131.006 24.48C131.859 22.88 133.046 21.6267 134.566 20.72C136.112 19.8133 137.899 19.36 139.926 19.36C141.899 19.36 143.619 19.8 145.086 20.68C146.552 21.56 147.686 22.7467 148.486 24.24C149.286 25.7067 149.686 27.36 149.686 29.2C149.686 29.4667 149.686 29.76 149.686 30.08C149.686 30.4 149.659 30.7333 149.606 31.08H133.206V28H144.846C144.792 26.5333 144.299 25.3867 143.366 24.56C142.432 23.7067 141.272 23.28 139.886 23.28C138.899 23.28 137.992 23.5067 137.166 23.96C136.339 24.4133 135.686 25.0933 135.206 26C134.726 26.88 134.486 28 134.486 29.36V30.52C134.486 31.7733 134.712 32.8533 135.166 33.76C135.646 34.6667 136.286 35.36 137.086 35.84C137.912 36.2933 138.832 36.52 139.846 36.52C140.966 36.52 141.886 36.28 142.606 35.8C143.352 35.32 143.899 34.68 144.246 33.88H149.126C148.752 35.1333 148.139 36.2667 147.286 37.28C146.432 38.2667 145.379 39.0533 144.126 39.64C142.872 40.2 141.459 40.48 139.886 40.48ZM163.078 40.48C161.211 40.48 159.544 40.0267 158.078 39.12C156.611 38.2133 155.464 36.96 154.638 35.36C153.838 33.76 153.438 31.9467 153.438 29.92C153.438 27.8933 153.851 26.0933 154.678 24.52C155.504 22.92 156.651 21.6667 158.118 20.76C159.611 19.8267 161.291 19.36 163.158 19.36C164.678 19.36 165.998 19.6533 167.118 20.24C168.264 20.8 169.171 21.6 169.838 22.64V11.2H174.638V40H170.318L169.838 37.08C169.411 37.6667 168.891 38.2267 168.278 38.76C167.664 39.2667 166.931 39.68 166.078 40C165.224 40.32 164.224 40.48 163.078 40.48ZM164.078 36.32C165.224 36.32 166.238 36.0533 167.118 35.52C167.998 34.96 168.678 34.2 169.158 33.24C169.638 32.28 169.878 31.1733 169.878 29.92C169.878 28.6667 169.638 27.56 169.158 26.6C168.678 25.64 167.998 24.8933 167.118 24.36C166.238 23.8267 165.224 23.56 164.078 23.56C162.984 23.56 161.998 23.8267 161.118 24.36C160.238 24.8933 159.544 25.64 159.038 26.6C158.558 27.56 158.318 28.6667 158.318 29.92C158.318 31.1733 158.558 32.28 159.038 33.24C159.544 34.2 160.238 34.96 161.118 35.52C161.998 36.0533 162.984 36.32 164.078 36.32ZM186.697 40.48C185.044 40.48 183.67 40.2 182.577 39.64C181.484 39.08 180.67 38.3333 180.137 37.4C179.604 36.4667 179.337 35.4533 179.337 34.36C179.337 33.08 179.657 31.9733 180.297 31.04C180.964 30.1067 181.937 29.3867 183.217 28.88C184.497 28.3467 186.07 28.08 187.937 28.08H193.017C193.017 27.0133 192.87 26.1333 192.577 25.44C192.284 24.72 191.83 24.1867 191.217 23.84C190.604 23.4933 189.817 23.32 188.857 23.32C187.764 23.32 186.83 23.5733 186.057 24.08C185.284 24.56 184.804 25.3067 184.617 26.32H179.897C180.057 24.88 180.537 23.6533 181.337 22.64C182.137 21.6 183.19 20.8 184.497 20.24C185.83 19.6533 187.284 19.36 188.857 19.36C190.75 19.36 192.364 19.6933 193.697 20.36C195.03 21 196.044 21.9333 196.737 23.16C197.457 24.36 197.817 25.8133 197.817 27.52V40H193.737L193.257 36.76C192.99 37.2933 192.644 37.7867 192.217 38.24C191.817 38.6933 191.35 39.0933 190.817 39.44C190.284 39.76 189.67 40.0133 188.977 40.2C188.31 40.3867 187.55 40.48 186.697 40.48ZM187.777 36.68C188.55 36.68 189.23 36.5467 189.817 36.28C190.43 35.9867 190.95 35.5867 191.377 35.08C191.83 34.5467 192.177 33.96 192.417 33.32C192.657 32.68 192.817 32 192.897 31.28V31.2H188.457C187.524 31.2 186.75 31.32 186.137 31.56C185.524 31.7733 185.084 32.0933 184.817 32.52C184.55 32.9467 184.417 33.44 184.417 34C184.417 34.56 184.55 35.04 184.817 35.44C185.084 35.84 185.47 36.1467 185.977 36.36C186.484 36.5733 187.084 36.68 187.777 36.68ZM210.986 40.48C209.199 40.48 207.639 40.2 206.306 39.64C204.999 39.0533 203.959 38.2533 203.186 37.24C202.439 36.2 201.999 35.0133 201.866 33.68H206.666C206.799 34.24 207.039 34.76 207.386 35.24C207.732 35.6933 208.199 36.0533 208.786 36.32C209.399 36.5867 210.119 36.72 210.946 36.72C211.746 36.72 212.399 36.6133 212.906 36.4C213.412 36.16 213.786 35.8533 214.026 35.48C214.266 35.1067 214.386 34.7067 214.386 34.28C214.386 33.64 214.212 33.1467 213.866 32.8C213.519 32.4533 213.012 32.1867 212.346 32C211.706 31.7867 210.932 31.5867 210.026 31.4C209.066 31.2133 208.132 30.9867 207.226 30.72C206.346 30.4267 205.546 30.0667 204.826 29.64C204.132 29.2133 203.572 28.6667 203.146 28C202.746 27.3333 202.546 26.52 202.546 25.56C202.546 24.3867 202.852 23.3333 203.466 22.4C204.106 21.4667 205.012 20.7333 206.186 20.2C207.386 19.64 208.812 19.36 210.466 19.36C212.812 19.36 214.679 19.9067 216.066 21C217.479 22.0667 218.306 23.5733 218.546 25.52H213.986C213.852 24.7733 213.479 24.2 212.866 23.8C212.252 23.3733 211.439 23.16 210.426 23.16C209.386 23.16 208.586 23.36 208.026 23.76C207.492 24.1333 207.226 24.64 207.226 25.28C207.226 25.68 207.386 26.0533 207.706 26.4C208.052 26.72 208.546 27 209.186 27.24C209.826 27.4533 210.612 27.6667 211.546 27.88C213.039 28.1733 214.359 28.52 215.506 28.92C216.652 29.32 217.559 29.9067 218.226 30.68C218.892 31.4533 219.226 32.5467 219.226 33.96C219.252 35.24 218.919 36.3733 218.226 37.36C217.559 38.3467 216.612 39.12 215.386 39.68C214.159 40.2133 212.692 40.48 210.986 40.48ZM223.883 40V11.2H228.683V22.96C229.35 21.8667 230.256 21 231.403 20.36C232.55 19.6933 233.843 19.36 235.283 19.36C236.936 19.36 238.336 19.7067 239.483 20.4C240.63 21.0667 241.496 22.0667 242.083 23.4C242.696 24.7067 243.003 26.3467 243.003 28.32V40H238.243V28.76C238.243 27.0267 237.87 25.7067 237.123 24.8C236.403 23.8933 235.296 23.44 233.803 23.44C232.843 23.44 231.976 23.68 231.203 24.16C230.43 24.6133 229.816 25.28 229.363 26.16C228.91 27.0133 228.683 28.0667 228.683 29.32V40H223.883Z" fill="white"/>
<circle cx="41" cy="30" r="10" fill="white"/>
<path d="M45.0909 25.4062V34.6003C45.0909 34.7063 45.0493 34.808 44.9751 34.8829C44.901 34.9579 44.8005 35 44.6957 35C44.5908 35 44.4903 34.9579 44.4162 34.8829C44.342 34.808 44.3004 34.7063 44.3004 34.6003V32.2018H41.9289C41.824 32.2018 41.7235 32.1597 41.6494 32.0847C41.5752 32.0098 41.5336 31.9081 41.5336 31.8021C41.552 30.8445 41.6715 29.8917 41.8903 28.9599C42.3735 26.9367 43.2895 25.5806 44.54 25.039C44.6001 25.0129 44.6657 25.0024 44.7308 25.0083C44.7959 25.0141 44.8586 25.0363 44.9132 25.0727C44.9678 25.1091 45.0126 25.1586 45.0436 25.2168C45.0746 25.275 45.0909 25.3401 45.0909 25.4062ZM40.3424 25.3408C40.3346 25.2883 40.3167 25.2379 40.2894 25.1925C40.2622 25.1471 40.2264 25.1077 40.1839 25.0765C40.1415 25.0452 40.0933 25.0229 40.0423 25.0107C39.9912 24.9985 39.9382 24.9967 39.8865 25.0054C39.8347 25.0142 39.7852 25.0332 39.7408 25.0615C39.6964 25.0898 39.658 25.1267 39.6279 25.1702C39.5977 25.2136 39.5765 25.2627 39.5653 25.3146C39.5541 25.3664 39.5532 25.42 39.5627 25.4722L39.9471 27.8047H38.7668V25.4062C38.7668 25.3002 38.7252 25.1985 38.651 25.1236C38.5769 25.0486 38.4764 25.0065 38.3715 25.0065C38.2667 25.0065 38.1662 25.0486 38.0921 25.1236C38.0179 25.1985 37.9763 25.3002 37.9763 25.4062V27.8047H36.7959L37.1803 25.4722C37.1898 25.42 37.189 25.3664 37.1778 25.3146C37.1666 25.2627 37.1453 25.2136 37.1152 25.1702C37.0851 25.1267 37.0467 25.0898 37.0023 25.0615C36.9579 25.0332 36.9084 25.0142 36.8566 25.0054C36.8048 24.9967 36.7519 24.9985 36.7008 25.0107C36.6497 25.0229 36.6016 25.0452 36.5591 25.0765C36.5167 25.1077 36.4808 25.1471 36.4536 25.1925C36.4264 25.2379 36.4084 25.2883 36.4007 25.3408L36.0054 27.7392C36.0019 27.7608 36.0001 27.7827 36 27.8047C36.0008 28.3712 36.1996 28.9192 36.5612 29.3519C36.9228 29.7846 37.4241 30.074 37.9763 30.1691V34.6003C37.9763 34.7063 38.0179 34.808 38.0921 34.8829C38.1662 34.9579 38.2667 35 38.3715 35C38.4764 35 38.5769 34.9579 38.651 34.8829C38.7252 34.808 38.7668 34.7063 38.7668 34.6003V30.1691C39.319 30.074 39.8202 29.7846 40.1819 29.3519C40.5435 28.9192 40.7423 28.3712 40.7431 27.8047C40.743 27.7827 40.7412 27.7608 40.7376 27.7392L40.3424 25.3408Z" fill="#1F1D2B"/>
<path d="M34.25 30C34.25 35.1086 30.1086 39.25 25 39.25C19.8914 39.25 15.75 35.1086 15.75 30C15.75 24.8914 19.8914 20.75 25 20.75C30.1086 20.75 34.25 24.8914 34.25 30Z" fill="#1F1D2B" stroke="white" stroke-width="1.5"/>
</svg>
